<svg id="Camada_1" data-name="Camada 1" xmlns="http://www.w3.org/2000/svg" viewBox="0 0 1381.31 812"><defs><style>.cls-1{fill:#fff;}</style></defs><title>logo-gou</title><path class="cls-1" d="M715.27,698.8q0,45-9.09,80.92t-25,63.57a187.75,187.75,0,0,1-38.27,47.35,207.19,207.19,0,0,1-48.6,32.18A234.93,234.93,0,0,1,538.43,941a278.26,278.26,0,0,1-60.19,4.93,351.6,351.6,0,0,1-48.81-4.15,287.61,287.61,0,0,1-46.53-11.24,239.68,239.68,0,0,1-43-19.16,189.11,189.11,0,0,1-37.44-27.82q-7-6.71-5.37-12.42a39.57,39.57,0,0,1,6.2-12.05l53-58.41q7-9.87,15.31-9.48a28.32,28.32,0,0,1,15.71,5.92,107.19,107.19,0,0,0,40.12,17.77,227.36,227.36,0,0,0,48,4.73,108,108,0,0,0,36.6-6.12,85.73,85.73,0,0,0,29.78-17.75,79.86,79.86,0,0,0,19.65-28.83q7-17.16,7-39.26v-3.17q-18.61,23.31-41.58,37.32t-51.49,14q-43.86,0-81.5-16.18a203,203,0,0,1-65.36-44.4,205.37,205.37,0,0,1-43.44-66.32q-15.71-38.1-15.71-81.51V488.42q0-43.82,15.71-81.91A209.5,209.5,0,0,1,328.29,340a199.49,199.49,0,0,1,65.16-44.6q37.64-16.2,81.48-16.17a114.91,114.91,0,0,1,34.54,5.12,128.84,128.84,0,0,1,30.4,14,130.9,130.9,0,0,1,25.86,21.52,226.53,226.53,0,0,1,21.72,27.23l9.1-38.67q5-17.38,24.82-17.39h75.7c5.51,0,9.93,1.45,13.23,4.35s5,7.38,5,13.42ZM416.61,570.54A83.31,83.31,0,0,0,422,600.71,72.67,72.67,0,0,0,437.08,625a69.35,69.35,0,0,0,22.75,16,70.84,70.84,0,0,0,28.76,5.73,83.87,83.87,0,0,0,31.65-5.93,81.65,81.65,0,0,0,25.43-16,73.36,73.36,0,0,0,17-23.89,72.28,72.28,0,0,0,6.2-30v-90a75.66,75.66,0,0,0-24.4-52.1,78.9,78.9,0,0,0-25-15.41,85,85,0,0,0-30.83-5.52,68.67,68.67,0,0,0-28.76,5.93A72.49,72.49,0,0,0,437.08,430,73.4,73.4,0,0,0,422,454.08a82,82,0,0,0-5.38,30Z" transform="translate(-269.35 -134)"/><path class="cls-1" d="M757,488.42q0-43.82,17.18-81.91A208.72,208.72,0,0,1,821.35,340q30-28.39,70.52-44.6t87.29-16.17q47.16,0,88.11,16.17t71.15,44.6a207.81,207.81,0,0,1,47.37,66.5Q1203,444.63,1203,488.42v90.8a196.15,196.15,0,0,1-17.17,81.51A205.32,205.32,0,0,1,1138.42,727q-30.2,28.23-71,44.43t-87.89,16.17q-47.15,0-87.71-16.17T821.35,727a206.2,206.2,0,0,1-47.15-66.29A196,196,0,0,1,757,579.22Zm147.27,93.94a80.8,80.8,0,0,0,5.58,30.2,73.48,73.48,0,0,0,15.52,24.27,69,69,0,0,0,24,16,81.62,81.62,0,0,0,31,5.72,79.11,79.11,0,0,0,31-5.92,72.94,72.94,0,0,0,24-16,72.05,72.05,0,0,0,15.51-23.87,79.27,79.27,0,0,0,5.58-30V484.09a79.41,79.41,0,0,0-5.58-30A74.45,74.45,0,0,0,1035.42,430a71.84,71.84,0,0,0-24-16.17,84.1,84.1,0,0,0-62,0,71.69,71.69,0,0,0-24,16.17,74.31,74.31,0,0,0-15.52,24.08,79.41,79.41,0,0,0-5.58,30Z" transform="translate(-269.35 -134)"/><path class="cls-1" d="M1650.65,399.76V737a198.78,198.78,0,0,1-154.51,194.25c-70-16.46-125.56-70.87-146.19-139.75a91.23,91.23,0,0,0,12.49,11.64c32,24.5,65.19,33.87,95.57,32.26a121.85,121.85,0,0,0,31.32-5.77,123.92,123.92,0,0,0,86.2-118.08V399.76c0-.19.09,87,.28-122.28a70.65,70.65,0,0,1,13.53,1.23,74.59,74.59,0,0,1,61,73.42C1650.65,486.78,1650.65,399.57,1650.65,399.76Z" transform="translate(-269.35 -134)"/><path class="cls-1" d="M1481.36,942.35c-48.36,9.39-103,1.22-157.08-31.26-49.83-30-80.09-84.28-80.09-142.49V277.48a75.15,75.15,0,0,1,75.16,75.22V741.39a84.91,84.91,0,0,0,.68,11.07C1324.75,845.79,1392,924.73,1481.36,942.35Z" transform="translate(-269.35 -134)"/><circle class="cls-1" cx="1171.64" cy="59.32" r="59.32"/></svg>